<svg
  width="137"
  height="38"
  viewBox="0 0 137 38"
  fill="none"
  xmlns="http://www.w3.org/2000/svg"
>
  <g clip-path="url(#clip0_41_638)">
    <path
      d="M60.6009 12.2711C60.5765 12.2047 60.531 12.1482 60.4714 12.1102C60.4117 12.0722 60.3413 12.0549 60.2709 12.0609H60.0834C60.0146 12.0588 59.9469 12.0779 59.8893 12.1155C59.8316 12.153 59.7868 12.2074 59.7609 12.2711L53.8358 25.2482C53.8081 25.3021 53.7951 25.3622 53.798 25.4227C53.8008 25.4832 53.8196 25.5419 53.8522 25.5929C53.8849 25.6438 53.9304 25.6853 53.9841 25.7131C54.0378 25.7409 54.0979 25.7541 54.1583 25.7514H55.8083C55.9302 25.7532 56.0494 25.7164 56.1491 25.6463C56.2488 25.5762 56.3238 25.4762 56.3633 25.3609L60.0759 16.9348C60.0806 16.927 60.0872 16.9206 60.095 16.9161C60.1029 16.9116 60.1118 16.9093 60.1209 16.9093C60.1299 16.9093 60.1389 16.9116 60.1467 16.9161C60.1546 16.9206 60.1612 16.927 60.1659 16.9348L62.0259 21.0652C62.03 21.0736 62.0317 21.083 62.0309 21.0923C62.0302 21.1016 62.027 21.1105 62.0216 21.1181C62.0163 21.1258 62.009 21.1319 62.0005 21.1358C61.992 21.1397 61.9827 21.1412 61.9734 21.1403H59.0784C59.0665 21.1421 59.0551 21.1463 59.0448 21.1526C59.0346 21.1589 59.0257 21.1672 59.0187 21.177C59.0117 21.1868 59.0068 21.1979 59.0041 21.2097C59.0015 21.2214 59.0012 21.2336 59.0034 21.2454L59.3934 23.213C59.3943 23.2229 59.3972 23.2325 59.4019 23.2413C59.4065 23.25 59.4129 23.2578 59.4206 23.2641C59.4282 23.2703 59.4371 23.275 59.4466 23.2779C59.4561 23.2807 59.466 23.2817 59.4759 23.2806H62.9784C62.9888 23.2817 62.9988 23.2849 63.0078 23.2901C63.0169 23.2953 63.0247 23.3023 63.0309 23.3107L63.9459 25.3609C64.0809 25.6312 64.216 25.7514 64.501 25.7514H66.151C66.2114 25.7541 66.2715 25.7409 66.3252 25.7131C66.3789 25.6853 66.4244 25.6438 66.4571 25.5929C66.4897 25.5419 66.5084 25.4832 66.5113 25.4227C66.5142 25.3622 66.5012 25.3021 66.4735 25.2482L60.6009 12.2711ZM73.4261 17.7684C71.8811 17.13 71.1761 16.5142 71.1761 15.6055C71.1761 14.9897 71.7761 14.2537 72.8561 14.2537C73.9361 14.2537 75.3536 15.23 75.5036 15.3201C75.6536 15.4103 76.0136 15.3201 76.1786 15.0948L76.8986 13.9909C77.0336 13.8031 76.9736 13.4727 76.7861 13.3601C76.4111 13.0597 74.9111 12.0684 72.9761 12.0684C69.946 12.0684 68.701 14.051 68.701 15.7707C68.701 18.0462 70.486 19.2028 72.2786 19.9312C73.8836 20.5921 74.7011 21.2605 74.7011 22.2443C74.7011 23.0703 73.9511 23.7312 72.9761 23.7312C71.7386 23.7312 70.201 22.6047 70.096 22.5296C70.0464 22.4916 69.9891 22.4647 69.9281 22.4508C69.8671 22.4369 69.8038 22.4364 69.7426 22.4492C69.6814 22.4621 69.6236 22.488 69.5733 22.5252C69.523 22.5624 69.4813 22.61 69.451 22.6648L68.761 23.8664C68.596 24.1668 68.686 24.2719 68.8585 24.4447C69.2335 24.8201 70.6585 25.9466 73.0586 25.9466C75.7436 25.9466 77.4386 24.1142 77.4386 22.1316C77.4236 19.6383 75.2861 18.5194 73.4411 17.7684H73.4261ZM115.404 12.2486H110.889C110.795 12.2544 110.707 12.297 110.644 12.3673C110.581 12.4375 110.548 12.5297 110.552 12.6241V25.3834C110.548 25.4778 110.581 25.57 110.644 25.6402C110.707 25.7105 110.795 25.7531 110.889 25.7589H115.404C119.079 25.7589 122.094 22.7324 122.094 18.985C122.094 15.2375 119.102 12.2411 115.427 12.2411L115.404 12.2486ZM115.179 23.3933H113.004V14.5842H115.179C117.654 14.5842 119.454 16.4767 119.454 18.9775C119.454 21.4782 117.677 23.3933 115.202 23.3933H115.179ZM46.7632 18.6245L51.7283 12.9545C51.9758 12.6616 51.7883 12.2561 51.4283 12.2561H49.4782C49.4071 12.2578 49.3374 12.2764 49.2748 12.3104C49.2122 12.3443 49.1585 12.3926 49.1182 12.4514L43.9507 18.3241C43.8777 18.4063 43.8361 18.5118 43.8334 18.6217C43.8306 18.7317 43.8669 18.8391 43.9357 18.9249L49.2907 25.6087C49.3333 25.6551 49.3857 25.6913 49.4441 25.7147C49.5025 25.7381 49.5655 25.7481 49.6282 25.7439H51.7508C51.8289 25.7432 51.9054 25.7211 51.9719 25.68C52.0384 25.6389 52.0923 25.5803 52.1279 25.5106C52.1634 25.441 52.1793 25.3629 52.1736 25.2848C52.1679 25.2068 52.141 25.1318 52.0958 25.068L46.7632 18.6245ZM42.3006 12.2411H40.6206C40.5602 12.2411 40.5005 12.2532 40.4449 12.2768C40.3893 12.3003 40.339 12.3349 40.297 12.3783C40.255 12.4218 40.2222 12.4732 40.2005 12.5297C40.1787 12.5861 40.1686 12.6463 40.1706 12.7067V25.2858C40.1686 25.3462 40.1787 25.4064 40.2005 25.4628C40.2222 25.5192 40.255 25.5707 40.297 25.6141C40.339 25.6576 40.3893 25.6921 40.4449 25.7157C40.5005 25.7393 40.5602 25.7514 40.6206 25.7514H42.3006C42.4207 25.7457 42.5341 25.6943 42.6177 25.6078C42.7013 25.5213 42.7489 25.4061 42.7506 25.2858V12.7142C42.7508 12.5925 42.7041 12.4755 42.6203 12.3874C42.5365 12.2993 42.422 12.2469 42.3006 12.2411ZM87.7888 18.6095L92.7614 12.9395C92.8173 12.8809 92.8548 12.8071 92.8691 12.7274C92.8835 12.6476 92.8741 12.5654 92.8421 12.4909C92.8101 12.4165 92.757 12.3531 92.6893 12.3087C92.6216 12.2642 92.5423 12.2407 92.4614 12.2411H90.5113C90.4402 12.2428 90.3704 12.2614 90.3079 12.2954C90.2453 12.3293 90.1916 12.3776 90.1513 12.4364L84.9763 18.3241C84.9043 18.4072 84.8641 18.5132 84.8628 18.6231C84.8614 18.7331 84.8989 18.84 84.9688 18.9249L90.3163 25.6087C90.3589 25.6551 90.4113 25.6913 90.4697 25.7147C90.5281 25.7381 90.5911 25.7481 90.6538 25.7439H92.7764C92.8545 25.7432 92.931 25.7211 92.9975 25.68C93.064 25.6389 93.1179 25.5803 93.1535 25.5106C93.189 25.441 93.2049 25.3629 93.1992 25.2848C93.1935 25.2068 93.1666 25.1318 93.1214 25.068L87.7888 18.6095ZM83.3262 12.2411H81.6537C81.5933 12.2411 81.5336 12.2532 81.478 12.2768C81.4224 12.3003 81.3721 12.3349 81.3301 12.3783C81.2881 12.4218 81.2553 12.4732 81.2336 12.5297C81.2118 12.5861 81.2017 12.6463 81.2037 12.7067V25.2858C81.2017 25.3462 81.2118 25.4064 81.2336 25.4628C81.2553 25.5192 81.2881 25.5707 81.3301 25.6141C81.3721 25.6576 81.4224 25.6921 81.478 25.7157C81.5336 25.7393 81.5933 25.7514 81.6537 25.7514H83.3262C83.4463 25.7457 83.5597 25.6943 83.6433 25.6078C83.7269 25.5213 83.7745 25.4061 83.7762 25.2858V12.7142C83.7764 12.5925 83.7297 12.4755 83.6459 12.3874C83.5621 12.2993 83.4476 12.2469 83.3262 12.2411ZM101.634 12.2636C101.61 12.1985 101.566 12.1429 101.508 12.105C101.449 12.0672 101.381 12.049 101.311 12.0533H101.116C101.048 12.0513 100.98 12.0704 100.922 12.1079C100.865 12.1455 100.82 12.1998 100.794 12.2636L94.8689 25.2407C94.7564 25.4885 94.9064 25.7439 95.1989 25.7439H96.8489C96.9708 25.7457 97.09 25.7089 97.1897 25.6388C97.2894 25.5687 97.3644 25.4687 97.4039 25.3533L101.124 16.9273C101.128 16.9211 101.134 16.916 101.14 16.9125C101.147 16.9089 101.154 16.9071 101.161 16.9071C101.169 16.9071 101.176 16.9089 101.183 16.9125C101.189 16.916 101.195 16.9211 101.199 16.9273L103.059 21.0577C103.063 21.0661 103.065 21.0754 103.064 21.0847C103.063 21.094 103.06 21.103 103.055 21.1106C103.049 21.1183 103.042 21.1244 103.034 21.1283C103.025 21.1321 103.016 21.1337 103.007 21.1328H100.096C100.085 21.1346 100.073 21.1388 100.063 21.1451C100.053 21.1514 100.044 21.1597 100.037 21.1695C100.03 21.1793 100.025 21.1904 100.022 21.2022C100.02 21.2139 100.019 21.2261 100.021 21.2379L100.411 23.2055C100.416 23.2241 100.427 23.2407 100.442 23.2529C100.456 23.265 100.475 23.2721 100.494 23.2731H103.997C104.007 23.273 104.018 23.2757 104.027 23.281C104.036 23.2863 104.044 23.2939 104.049 23.3031L104.964 25.3533C105.099 25.6237 105.234 25.7439 105.519 25.7439H107.177C107.237 25.7466 107.297 25.7334 107.351 25.7056C107.405 25.6778 107.45 25.6363 107.483 25.5854C107.515 25.5344 107.534 25.4757 107.537 25.4152C107.54 25.3547 107.527 25.2945 107.499 25.2407L101.634 12.2636ZM136.622 25.2407L130.757 12.2636C130.733 12.1972 130.687 12.1407 130.627 12.1027C130.568 12.0647 130.497 12.0474 130.427 12.0533H130.239C130.171 12.0513 130.103 12.0704 130.045 12.1079C129.988 12.1455 129.943 12.1998 129.917 12.2636L123.992 25.2407C123.964 25.2945 123.951 25.3547 123.954 25.4152C123.957 25.4757 123.976 25.5344 124.008 25.5854C124.041 25.6363 124.086 25.6778 124.14 25.7056C124.194 25.7334 124.254 25.7466 124.314 25.7439H125.964C126.086 25.7457 126.205 25.7089 126.305 25.6388C126.405 25.5687 126.48 25.4687 126.519 25.3533L130.232 16.9273C130.237 16.9195 130.243 16.913 130.251 16.9086C130.259 16.9041 130.268 16.9018 130.277 16.9018C130.286 16.9018 130.295 16.9041 130.303 16.9086C130.311 16.913 130.317 16.9195 130.322 16.9273L132.182 21.0577C132.186 21.0661 132.188 21.0754 132.187 21.0847C132.186 21.094 132.183 21.103 132.178 21.1106C132.172 21.1183 132.165 21.1244 132.157 21.1283C132.148 21.1321 132.139 21.1337 132.129 21.1328H129.227C129.215 21.1346 129.204 21.1388 129.193 21.1451C129.183 21.1514 129.174 21.1597 129.167 21.1695C129.16 21.1793 129.155 21.1904 129.153 21.2022C129.15 21.2139 129.15 21.2261 129.152 21.2379L129.542 23.2055C129.543 23.2154 129.546 23.225 129.55 23.2338C129.555 23.2425 129.561 23.2503 129.569 23.2565C129.577 23.2628 129.586 23.2675 129.595 23.2704C129.605 23.2732 129.615 23.2741 129.624 23.2731H133.127C133.137 23.2742 133.147 23.2774 133.156 23.2826C133.165 23.2878 133.173 23.2948 133.179 23.3031L134.094 25.3533C134.229 25.6237 134.364 25.7439 134.649 25.7439H136.299C136.359 25.7459 136.418 25.7326 136.471 25.7051C136.523 25.6777 136.568 25.6371 136.6 25.5872C136.633 25.5373 136.652 25.4799 136.656 25.4205C136.659 25.3611 136.648 25.3018 136.622 25.2482V25.2407Z"
      fill="#26364A"
    />
    <path
      d="M31.8005 27.8616C30.3379 26.2245 26.9254 22.4545 25.0504 20.3968C25.0334 20.3768 25.0115 20.3616 24.9869 20.3527C24.9623 20.3439 24.9357 20.3416 24.91 20.3461C24.8842 20.3507 24.86 20.3619 24.8399 20.3787C24.8198 20.3955 24.8045 20.4173 24.7954 20.4419L23.5728 23.4458C23.5539 23.4905 23.5481 23.5397 23.556 23.5876C23.564 23.6355 23.5855 23.6801 23.6178 23.7162C25.7404 26.0442 28.8079 29.4237 29.3929 30.0996C29.8417 30.5968 30.0839 31.2468 30.07 31.9169C30.0561 32.5869 29.787 33.2263 29.3179 33.7043C28.8563 34.1703 28.2343 34.4422 27.5792 34.4645C26.9241 34.4869 26.2851 34.2579 25.7929 33.8245C24.7504 32.9308 17.2053 26.2095 17.2053 26.2095C17.2053 26.2095 29.7004 12.4889 31.7855 10.1233C33.8705 7.75769 33.8255 4.19049 31.6055 1.93753C29.3854 -0.315434 25.9504 -0.337964 23.6028 1.67468C21.2553 3.68733 15.0002 9.31223 15.0002 9.31223C15.0002 9.31223 9.75015 3.45453 8.38513 2.01263C7.02011 0.570732 5.02508 0.0900996 3.19505 0.826068C1.36503 1.56204 0.30001 3.37943 0.30001 5.31698V32.7731C0.292581 33.7184 0.571796 34.6438 1.10075 35.4269C1.62971 36.2099 2.38352 36.8139 3.26255 37.1589C5.06258 37.8648 7.05011 37.3691 8.37763 35.9573C9.12764 35.1612 11.1227 32.9533 12.7277 31.181C12.7599 31.1418 12.781 31.0946 12.7889 31.0444C12.7968 30.9943 12.7912 30.9429 12.7727 30.8956L11.4227 28.0269C11.4123 28.0043 11.3964 27.9847 11.3766 27.9698C11.3567 27.9549 11.3335 27.9451 11.309 27.9414C11.2845 27.9377 11.2594 27.9401 11.2361 27.9485C11.2127 27.9568 11.1918 27.9709 11.1752 27.9893C9.37514 29.9794 6.3976 33.2688 5.97009 33.7269C5.34758 34.3802 4.65757 34.1624 4.45507 34.0798C4.1919 33.9809 3.96566 33.803 3.80726 33.5704C3.64885 33.3379 3.56602 33.0621 3.57006 32.7806V5.19682C3.56256 4.31065 4.17757 3.98022 4.50007 3.87508C4.82258 3.76994 5.44509 3.70235 5.87259 4.16046C6.1726 4.48338 19.3128 18.985 19.3128 18.985L14.7377 24.0166C14.7377 24.0166 11.3102 21.0126 10.8827 20.5921C10.4552 20.1715 10.1552 19.6008 10.1552 18.9699C10.157 18.6638 10.2227 18.3613 10.348 18.082C10.4732 17.8027 10.6554 17.5526 10.8827 17.3478C10.9727 17.2727 11.5277 16.762 12.3827 15.996C12.4201 15.9615 12.4469 15.9171 12.4602 15.8679C12.4735 15.8188 12.4726 15.7669 12.4577 15.7182L11.4227 12.7292C11.4156 12.7044 11.4022 12.6818 11.3839 12.6637C11.3655 12.6455 11.3428 12.6324 11.3179 12.6257C11.293 12.6189 11.2668 12.6186 11.2418 12.6249C11.2168 12.6312 11.1939 12.6439 11.1752 12.6616C10.3502 13.3901 9.33014 14.2913 8.72263 14.8545C7.56762 15.9284 6.88511 17.3929 6.88511 18.9624C6.8897 19.7374 7.05547 20.5029 7.37184 21.2101C7.68821 21.9174 8.14824 22.5509 8.72263 23.0703C9.21764 23.5209 22.5003 35.349 23.6253 36.2877C24.7504 37.2265 26.1154 37.7747 27.4954 37.7747C28.2653 37.7753 29.0276 37.6229 29.7383 37.3264C30.4489 37.0299 31.0938 36.5952 31.6355 36.0474C33.8555 33.7944 33.9005 30.2047 31.8005 27.8616ZM17.2053 11.7154C20.9928 8.35097 25.1929 4.63358 25.7554 4.15295C26.8054 3.27429 28.3279 3.30433 29.2804 4.2731C30.2329 5.24188 30.2554 6.82646 29.3554 7.87785C28.4554 8.92923 21.5253 16.5142 21.5253 16.5142L20.1453 14.9897L17.2053 11.7154Z"
      fill="#F14C4C"
    />
  </g>
  <defs>
    <clipPath id="clip0_41_638">
      <rect width="136.952" height="38" fill="white" />
    </clipPath>
  </defs>
</svg>