<svg xmlns="http://www.w3.org/2000/svg" viewBox="0 0 1826 506"><defs><style>.a{fill:#fff;}.b{fill:#ff323c;}</style></defs><title>Kaskada Logo Horizontal Negative RGB</title><path class="a" d="M808.07,163.39a4.32,4.32,0,0,0-4.32-2.83h-2.54a4.58,4.58,0,0,0-4.32,2.83l-79,172.8a4.54,4.54,0,0,0,4.32,6.68h22.09a7.67,7.67,0,0,0,7.37-5.14l49.55-112.26a.65.65,0,0,1,1.18,0l24.73,55a.72.72,0,0,1-.65,1H787.71a1.13,1.13,0,0,0-1.1,1.35l5.18,26.24a1.11,1.11,0,0,0,1.09.91H839.6a.71.71,0,0,1,.65.43l12.25,27.3c1.78,3.6,3.56,5.14,7.37,5.14H882a4.53,4.53,0,0,0,4.32-6.68Zm171.14,73.18c-20.57-8.48-30-16.69-30-28.76,0-8.22,7.88-18,22.35-18,14,0,33.27,12.83,35.3,14.12,3.05,2,6.86,0,8.89-3.08l9.65-14.64c1.78-2.57,1-6.93-1.52-8.47-5.09-3.85-24.89-17.21-50.8-17.21-40.37,0-57.13,26.45-57.13,49.3,0,30.3,23.87,45.71,47.74,55.46C985.05,274.06,996,283,996,296.14c0,11-9.9,19.77-23.11,19.77-16.5,0-37.07-15.15-38.35-15.92a5.83,5.83,0,0,0-8.62,1.8l-9.15,15.91c-2.29,4.11-1,5.4,1.27,7.71,5.08,4.88,23.87,20,55.87,20,35.8,0,58.41-24.4,58.41-50.84C1032.29,261.47,1003.85,246.58,979.21,236.57Zm559.72-73.44h-60.19a4.8,4.8,0,0,0-4.57,4.88V338a4.8,4.8,0,0,0,4.57,4.88h60.19c49,0,89.13-40.31,89.13-90.13C1628.06,203.44,1587.94,163.13,1538.93,163.13Zm-3,148.41h-28.94V194.2h28.94c33,0,57.14,25.17,57.14,58.54C1593,286.38,1568.89,311.54,1535.88,311.54ZM623.46,247.87l66.28-75.49a5.47,5.47,0,0,0-4.06-9.25h-26a6.09,6.09,0,0,0-4.83,2.57L586,244.09a6.29,6.29,0,0,0-.18,8.06l71.3,88.92c.51.77,2,1.8,4.57,1.8H690a5.64,5.64,0,0,0,4.58-9ZM564,163.13H541.63a6.06,6.06,0,0,0-6.1,6.17V336.71a6.05,6.05,0,0,0,6.1,6.16H564a6.21,6.21,0,0,0,6.09-6.16V169.3A6.22,6.22,0,0,0,564,163.13Zm606.5,84.74,66.28-75.49a5.47,5.47,0,0,0-4.06-9.25h-26a6.09,6.09,0,0,0-4.83,2.57l-68.83,78.39a6.29,6.29,0,0,0-.18,8.06l71.3,88.92c.51.77,2,1.8,4.57,1.8H1237a5.64,5.64,0,0,0,4.58-9ZM1111,163.13h-22.35a6.06,6.06,0,0,0-6.1,6.17V336.71a6.05,6.05,0,0,0,6.1,6.16H1111a6.21,6.21,0,0,0,6.09-6.16V169.3A6.22,6.22,0,0,0,1111,163.13Zm244.09.26a4.32,4.32,0,0,0-4.32-2.83h-2.54a4.58,4.58,0,0,0-4.32,2.83l-79,172.8a4.54,4.54,0,0,0,4.32,6.68h22.09a7.67,7.67,0,0,0,7.37-5.14l49.55-112.26a.65.65,0,0,1,1.18,0l24.73,55a.72.72,0,0,1-.65,1h-38.79a1.13,1.13,0,0,0-1.1,1.35l5.18,26.24a1.11,1.11,0,0,0,1.09.91h46.72a.71.71,0,0,1,.65.43l12.25,27.3c1.78,3.6,3.56,5.14,7.37,5.14H1429a4.53,4.53,0,0,0,4.32-6.68Zm466.49,172.8-78.21-172.8a4.32,4.32,0,0,0-4.32-2.83h-2.54a4.58,4.58,0,0,0-4.32,2.83l-79,172.8a4.54,4.54,0,0,0,4.32,6.68h22.09a7.67,7.67,0,0,0,7.37-5.14l49.55-112.26a.65.65,0,0,1,1.18,0l24.73,55a.72.72,0,0,1-.65,1H1723a1.13,1.13,0,0,0-1.1,1.35l5.17,26.24a1.13,1.13,0,0,0,1.1.91h46.71a.72.72,0,0,1,.66.43l12.25,27.3c1.78,3.6,3.56,5.14,7.37,5.14h22.09A4.53,4.53,0,0,0,1821.58,336.19Z"/><path class="b" d="M424.13,371C404.62,349.19,359,299.08,334,271.6a2,2,0,0,0-3.35.62l-16.37,39.91a3.4,3.4,0,0,0,.62,3.59c28.32,31.11,69.23,76.11,77.09,85,12.24,13.91,12,34.88-1,48.08a34.46,34.46,0,0,1-47.08,1.55C330.11,438.52,229.4,349,229.4,349S396,166.29,423.75,134.82s27.28-79.07-2.35-109c-29-29.28-75.46-30.34-106.69-3.51S199.94,124,199.94,124s-70.14-78.14-88.2-97.17C93.45,7.57,66.86,1.16,42.58,11.13,18.82,20.88,3.91,45,3.91,70.84V436.41a62,62,0,0,0,39.53,58.35c24,9.43,50.44,2.8,68.2-16.05,10-10.58,36.56-39.93,58-63.65a3.42,3.42,0,0,0,.54-3.74l-18-38.21a2,2,0,0,0-3.32-.51c-24,26.49-63.65,70.31-69.37,76.36-8.28,8.75-17.48,5.84-20.23,4.76a18.23,18.23,0,0,1-11.72-17.31V69.18C47.53,57.41,55.74,53,60,51.58S72.59,49.3,78.33,55.4c4,4.3,179.18,197.4,179.18,197.4l-60.9,67.1s-45.68-40-51.41-45.55-9.7-13.23-9.7-21.63a29.23,29.23,0,0,1,9.71-21.63c1.16-1.09,8.62-7.75,20-17.87a3.46,3.46,0,0,0,1-3.72l-13.77-39.81a2,2,0,0,0-3.25-.89c-11,9.71-24.59,21.68-32.69,29.19C101,212.3,91.89,231.76,91.89,252.72a74.34,74.34,0,0,0,24.55,54.72c6.52,6,183.63,163.5,198.65,176.05S348.2,503,366.55,503a77.5,77.5,0,0,0,55.23-23C451.41,450.06,452.06,402.24,424.13,371ZM229.41,156.11C280,111.25,335.86,61.77,343.48,55.42c14-11.69,34.28-11.36,47.08,1.55,13.07,13.2,13,33.88,1,48.09S287.18,220.12,287.18,220.12l-18.41-20.28Z"/></svg>